<?xml version="1.0" encoding="iso-8859-1"?>
<!-- Generator: Adobe Illustrator 16.0.0, SVG Export Plug-In . SVG Version: 6.00 Build 0)  -->
<!DOCTYPE svg PUBLIC "-//W3C//DTD SVG 1.1//EN" "http://www.w3.org/Graphics/SVG/1.1/DTD/svg11.dtd">
<svg version="1.1" id="Capa_1" xmlns="http://www.w3.org/2000/svg" xmlns:xlink="http://www.w3.org/1999/xlink" x="0px" y="0px"
	 viewBox="0 0 430.145 430.145" style="enable-background:new 0 0 430.145 430.145;"
	 xml:space="preserve">
<g>
	<path d="M226.623,94.279l109.242,109.242L129.928,409.398L20.686,300.217L226.623,94.279z M54.591,375.493L0,320.903l1.408,97.92
		c0.062,4.773,5.141,9.853,9.915,9.914l97.92,1.407l-0.795-0.795L54.591,375.493z M247.371,73.593l109.18,109.181l14.322-14.259
		l2.264-2.326L263.955,57.008L247.371,73.593z M426.564,95.503L334.643,3.581c-4.773-4.773-12.547-4.773-17.32,0l-35.557,35.557
		l109.18,109.242l35.619-35.557C431.338,108.049,431.338,100.276,426.564,95.503z"/>
</g>
<g>
</g>
<g>
</g>
<g>
</g>
<g>
</g>
<g>
</g>
<g>
</g>
<g>
</g>
<g>
</g>
<g>
</g>
<g>
</g>
<g>
</g>
<g>
</g>
<g>
</g>
<g>
</g>
<g>
</g>
</svg>
